Coordinates
version=1
nRows=24
nColumns=22
inDegrees=yes

Units are S.I. units (second, meters, Newtons, ...)
If the header above contains a line with 'inDegrees', this indicates whether rotational values are in degrees (yes) or radians (no).

endheader
time	pelvis_tilt	pelvis_list	pelvis_rotation	pelvis_tx	pelvis_ty	pelvis_tz	hip_flexion_r	hip_adduction_r	hip_rotation_r	knee_angle_r	ankle_angle_r	subtalar_angle_r	hip_flexion_l	hip_adduction_l	hip_rotation_l	knee_angle_l	ankle_angle_l	subtalar_angle_l	lumbar_extension	lumbar_bending	lumbar_rotation
      5.07000000	    -11.40758367	     -8.00479660	     -4.80518027	      1.07215535	      0.96148099	      0.45635737	      8.88374804	     13.24717450	     -1.36853645	    -17.87993698	     22.63009146	     -8.16861852	     38.33492236	     -9.78520330	      1.10232998	    -16.96854066	      8.88876270	      8.18825136	      1.17388242	      9.95248466	      9.06483415
      5.08000000	    -11.45414067	     -7.95490609	     -4.99988807	      1.07837995	      0.96102336	      0.45532789	      8.60865650	     13.10864386	     -1.15514414	    -18.05984811	     22.78209608	     -7.90619280	     38.21658372	     -9.74510205	      0.95375705	    -17.31282103	      8.13162799	      7.86974668	      1.31589357	      9.91274764	      8.94205083
      5.09000000	    -11.50197826	     -7.88153140	     -5.15563216	      1.08462530	      0.96067590	      0.45416204	      8.35041161	     12.93711533	     -0.95140980	    -18.25207096	     22.84883956	     -7.73696602	     38.10972911	     -9.65625386	      0.84465407	    -17.68777066	      7.23330094	      7.66830529	      1.46933302	      9.84973919	      8.78131398
      5.10000000	    -11.51910917	     -7.77179222	     -5.27833102	      1.09094579	      0.96048264	      0.45289752	      8.09482483	     12.70652392	     -0.83507707	    -18.50145923	     22.96548509	     -7.35418172	     37.99393175	     -9.52628659	      0.65046881	    -18.11600255	      6.35362427	      7.23234761	      1.60024523	      9.74067273	      8.57338778
      5.11000000	    -11.51230737	     -7.63585188	     -5.34881226	      1.09730985	      0.96046507	      0.45149664	      7.83324271	     12.43981331	     -0.71517450	    -18.77211445	     22.99195803	     -7.02742692	     37.85594983	     -9.34216755	      0.49181071	    -18.54311409	      5.50351475	      6.91600960	      1.71363959	      9.59896366	      8.32217814
      5.12000000	    -11.46256642	     -7.46741717	     -5.36708395	      1.10375527	      0.96064721	      0.44995893	      7.53917812	     12.12375072	     -0.61930165	    -19.05334730	     22.98798244	     -6.63418377	     37.68586892	     -9.10238318	      0.32311819	    -18.99865719	      4.78021253	      6.56727770	      1.78914635	      9.41067972	      8.07608702
      5.13000000	    -11.37100245	     -7.26783702	     -5.33762028	      1.11027054	      0.96103180	      0.44830420	      7.22457710	     11.76388792	     -0.52309810	    -19.36955691	     22.93865306	     -6.21457676	     37.46766568	     -8.80989710	      0.15041387	    -19.45181771	      4.22824333	      6.22626590	      1.82237842	      9.18021455	      7.80428720
      5.14000000	    -11.22939705	     -7.05247829	     -5.26704145	      1.11684429	      0.96163133	      0.44654925	      6.87692434	     11.37698344	     -0.42188405	    -19.71388726	     22.83816260	     -5.71692178	     37.18936370	     -8.47973480	     -0.01256609	    -19.90197227	      3.86756922	      5.85163076	      1.79860240	      8.92266596	      7.53807596
      5.15000000	    -11.05653672	     -6.81350986	     -5.15723045	      1.12346395	      0.96240470	      0.44469289	      6.51998340	     10.95585517	     -0.31935499	    -20.09251739	     22.70014445	     -5.19273764	     36.86901763	     -8.10302563	     -0.16845897	    -20.34482557	      3.69463724	      5.47836568	      1.74045445	      8.63373552	      7.27453783
      5.16000000	    -10.86265810	     -6.56745453	     -5.02500027	      1.13009193	      0.96333064	      0.44277535	      6.17538711	     10.52059263	     -0.22516092	    -20.52531560	     22.50726721	     -4.60483225	     36.50259869	     -7.70148408	     -0.30111563	    -20.75397887	      3.69251732	      5.09000714	      1.65171043	      8.33243432	      7.03592845
      5.17000000	    -10.67011603	     -6.32495769	     -4.89897163	      1.13667634	      0.96436776	      0.44084254	      5.86942142	     10.08498749	     -0.14008934	    -21.01365709	     22.26749167	     -3.94906772	     36.11384709	     -7.29869508	     -0.40427261	    -21.13431707	      3.83554781	      4.69905887	      1.54880534	      8.03484318	      6.83139687
      5.18000000	    -10.50214732	     -6.09193052	     -4.78483643	      1.14319125	      0.96546358	      0.43891814	      5.62431111	      9.65920097	     -0.06086766	    -21.55054518	     21.99365199	     -3.24245858	     35.72431743	     -6.90672040	     -0.49886481	    -21.47023836	      4.06115136	      4.32740360	      1.45961749	      7.74886333	      6.67066544
      5.19000000	    -10.37545096	     -5.88249010	     -4.70635168	      1.14958659	      0.96657046	      0.43703619	      5.47039259	      9.25829791	      0.00287692	    -22.15667268	     21.67491676	     -2.48166975	     35.35115540	     -6.55110085	     -0.58070818	    -21.76034280	      4.34561931	      3.98652827	      1.39429487	      7.49612055	      6.57109144
      5.20000000	    -10.30880166	     -5.65770992	     -4.67146076	      1.15586658	      0.96763238	      0.43520871	      5.43913427	      8.84357590	      0.05867839	    -22.85104971	     21.35499733	     -1.80473973	     35.00587618	     -6.20424409	     -0.70753693	    -21.98707011	      4.64796053	      3.71951982	      1.38227608	      7.23054731	      6.52459722
      5.21000000	    -10.26432345	     -5.50692446	     -4.66966728	      1.16201552	      0.96869319	      0.43342150	      5.45977960	      8.50637336	      0.11748546	    -23.57936904	     20.95437547	     -0.88990517	     34.66990907	     -5.93759054	     -0.78714631	    -22.18564676	      4.97200454	      3.41471466	      1.36603132	      7.05673842	      6.55104216
      5.22000000	    -10.27406479	     -5.34798819	     -4.69671831	      1.16805849	      0.96966323	      0.43166603	      5.59096771	      8.16390870	      0.17414702	    -24.38383760	     20.54486484	     -0.03984964	     34.36575905	     -5.67786415	     -0.90471446	    -22.33023869	      5.29090089	      3.16065766	      1.40289430	      6.87902818	      6.59824525
      5.23000000	    -10.32259741	     -5.17271570	     -4.75901593	      1.17401017	      0.97054935	      0.42996300	      5.81949448	      7.80860356	      0.23741235	    -25.27291501	     20.12137745	      0.73081326	     34.06864171	     -5.42248528	     -1.07352060	    -22.40604759	      5.59728045	      2.92787251	      1.47522390	      6.68689117	      6.67640726
      5.24000000	    -10.39423627	     -5.00487131	     -4.82495178	      1.17985211	      0.97133369	      0.42825084	      6.11979532	      7.45954348	      0.27925661	    -26.22662596	     19.68236393	      1.59675536	     33.79563116	     -5.16898789	     -1.22123316	    -22.46840301	      5.89591383	      2.65858484	      1.56234259	      6.50431837	      6.77647274
      5.25000000	    -10.48407866	     -4.86630989	     -4.87093248	      1.18560801	      0.97201324	      0.42651008	      6.47368686	      7.13967445	      0.28014344	    -27.22402633	     19.21032452	      2.58024531	     33.54440241	     -4.92965408	     -1.33782307	    -22.51517910	      6.22244851	      2.34754424	      1.66444689	      6.35986242	      6.82856137
      5.26000000	    -10.58980637	     -4.67881084	     -4.93675758	      1.19125679	      0.97257704	      0.42480256	      6.91333243	      6.76928450	      0.26390488	    -28.32292957	     18.74472594	      3.41917641	     33.29549483	     -4.65440342	     -1.49791149	    -22.52282241	      6.51570492	      2.04710838	      1.78013219	      6.15691093	      6.91098878
      5.27000000	    -10.69575644	     -4.45912199	     -4.99934060	      1.19681545	      0.97304136	      0.42309535	      7.40985689	      6.35860241	      0.19208094	    -29.50106707	     18.27731073	      4.12071482	     33.03861809	     -4.34560092	     -1.67039663	    -22.49766030	      6.77972147	      1.77119445	      1.89424590	      5.91609909	      6.99620055
      5.28000000	    -10.81577534	     -4.24715156	     -5.02228331	      1.20228704	      0.97337087	      0.42136968	      7.95014451	      5.95553543	      0.08595486	    -30.71329309	     17.75886286	      4.99909078	     32.82587770	     -4.02636372	     -1.81026006	    -22.50517863	      7.08900610	      1.42351887	      2.02537411	      5.67912189	      7.00378096
      5.29000000	    -10.92350382	     -4.00152389	     -5.03028612	      1.20766585	      0.97362033	      0.41964855	      8.52886919	      5.50605485	     -0.08502929	    -31.99678923	     17.21360044	      5.70924446	     32.59814563	     -3.66856747	     -1.95761094	    -22.48799125	      7.37741711	      1.12376193	      2.14244438	      5.39577452	      6.99959505
      5.30000000	    -11.02862528	     -3.73816245	     -5.01588637	      1.21295389	      0.97377759	      0.41792269	      9.14578430	      5.02629780	     -0.31012716	    -33.33520843	     16.63269055	      6.36387712	     32.37559669	     -3.28332416	     -2.09223928	    -22.46681428	      7.65978757	      0.82963886	      2.25731025	      5.08892297	      6.96430000
